<svg width="22" height="17" viewBox="0 0 22 17" fill="none" xmlns="http://www.w3.org/2000/svg">
<path fill-rule="evenodd" clip-rule="evenodd" d="M20.9 2.24074H1.1C0.492807 2.24074 0 1.73884 0 1.12037C0 0.501896 0.492807 0 1.1 0H20.9C21.5072 3.66133e-05 22 0.501932 22 1.1204C22 1.73884 21.5072 2.24074 20.9 2.24074ZM10.3105 14.6667H20.9C21.5072 14.6667 22 15.1686 22 15.787C22 16.4055 21.5072 16.9074 20.9 16.9074H10.3105C9.70331 16.9074 9.21051 16.4055 9.21051 15.787C9.21051 15.1686 9.70331 14.6667 10.3105 14.6667ZM20.9 7.33331H1.1C0.492807 7.33331 0 7.83528 0 8.45372C0 9.07216 0.492807 9.57409 1.1 9.57409H20.9C21.5072 9.57409 22 9.07219 22 8.45372C22 7.83525 21.5072 7.33331 20.9 7.33331Z" fill="#2B003F"/>
</svg>
