<svg width="16" height="16" viewBox="0 0 16 16" fill="none" xmlns="http://www.w3.org/2000/svg">
<path fill-rule="evenodd" clip-rule="evenodd" d="M10.1658 8.22233C10.0665 7.96234 9.88265 7.73725 9.6395 7.57804C9.39635 7.41883 9.10589 7.33334 8.8081 7.33333V7H8.08821V7.33333C7.70636 7.33333 7.34015 7.47381 7.07014 7.72386C6.80013 7.97391 6.64844 8.31304 6.64844 8.66667C6.64844 9.02029 6.80013 9.35943 7.07014 9.60947C7.34015 9.85952 7.70636 10 8.08821 10V11.3333C7.77506 11.3333 7.50834 11.1483 7.409 10.889C7.39426 10.8466 7.37048 10.8073 7.33907 10.7735C7.30766 10.7398 7.26926 10.7122 7.22613 10.6924C7.18301 10.6726 7.13603 10.661 7.08799 10.6584C7.03995 10.6557 6.99182 10.6619 6.94644 10.6768C6.90106 10.6916 6.85936 10.7148 6.8238 10.7448C6.78824 10.7748 6.75954 10.8112 6.73941 10.8516C6.71928 10.8921 6.70812 10.9359 6.70659 10.9805C6.70506 11.025 6.71319 11.0694 6.7305 11.111C6.82979 11.371 7.01367 11.5961 7.25682 11.7553C7.49996 11.9145 7.79043 12 8.08821 12V12.3333H8.8081V12C9.18995 12 9.55617 11.8595 9.82618 11.6095C10.0962 11.3594 10.2479 11.0203 10.2479 10.6667C10.2479 10.313 10.0962 9.97391 9.82618 9.72386C9.55617 9.47381 9.18995 9.33333 8.8081 9.33333V8C8.95698 7.99997 9.10221 8.04268 9.22378 8.12225C9.34536 8.20183 9.43731 8.31435 9.48696 8.44433C9.51875 8.5277 9.58499 8.59596 9.67113 8.63409C9.71378 8.65297 9.76002 8.66389 9.80723 8.66622C9.85443 8.66855 9.90167 8.66224 9.94625 8.64767C9.99082 8.63309 10.0319 8.61052 10.067 8.58126C10.1022 8.552 10.1308 8.51661 10.1511 8.47711C10.1715 8.43762 10.1833 8.39479 10.1858 8.35107C10.1884 8.30736 10.1816 8.26361 10.1658 8.22233ZM8.08821 8C7.89729 8 7.71418 8.07024 7.57918 8.19526C7.44417 8.32029 7.36833 8.48986 7.36833 8.66667C7.36833 8.84348 7.44417 9.01305 7.57918 9.13807C7.71418 9.26309 7.89729 9.33333 8.08821 9.33333V8ZM8.8081 11.3333C8.99903 11.3333 9.18213 11.2631 9.31714 11.1381C9.45214 11.013 9.52799 10.8435 9.52799 10.6667C9.52799 10.4899 9.45214 10.3203 9.31714 10.1953C9.18213 10.0702 8.99903 10 8.8081 10V11.3333Z" fill="#78808A"/>
<path fill-rule="evenodd" clip-rule="evenodd" d="M4.54193 2.87367C5.42524 2.47333 6.87437 2 8.46029 2C10.0131 2 11.4241 2.45367 12.3027 2.84867L12.3524 2.871C12.6173 2.99233 12.8311 3.107 12.9815 3.2L11.6519 5C14.7172 7.902 17.0849 13.999 8.46029 13.999C-0.164334 13.999 2.13967 8.01267 5.23159 5L3.91059 3.2C4.01246 3.13833 4.14168 3.06667 4.29573 2.99067C4.37204 2.95267 4.45411 2.91333 4.54193 2.87367ZM10.7974 4.976L11.8618 3.535C10.8719 3.601 9.69417 3.81633 8.56035 4.12033C7.75048 4.337 6.85062 4.304 6.01735 4.16167C5.80737 4.12562 5.59883 4.0827 5.39212 4.033L6.08321 4.97533C7.56438 5.46367 9.31587 5.46367 10.7974 4.976ZM5.66748 5.54333C7.40061 6.16333 9.48361 6.16333 11.2167 5.54267C11.9402 6.2489 12.5454 7.05146 13.0121 7.92367C13.4988 8.843 13.7637 9.762 13.7205 10.554C13.6788 11.3183 13.3541 11.9713 12.6126 12.4567C11.8398 12.9623 10.54 13.3323 8.45993 13.3323C6.37765 13.3323 5.07177 12.9687 4.29177 12.4687C3.54489 11.9893 3.21698 11.3453 3.17055 10.5913C3.12196 9.808 3.38111 8.89367 3.86596 7.968C4.32849 7.08533 4.97387 6.23567 5.66748 5.54333ZM5.25354 3.30533C5.5415 3.38467 5.84241 3.45367 6.14765 3.506C6.92153 3.638 7.69756 3.65733 8.35986 3.47967C9.13166 3.27145 9.91664 3.10769 10.7103 2.98933C10.048 2.80467 9.2734 2.66667 8.45993 2.66667C7.21992 2.66667 6.06342 2.987 5.25354 3.30533Z" fill="#78808A"/>
</svg>
