<svg aria-hidden="true" style="position: absolute; width: 0; height: 0; overflow: hidden;" version="1.1" xmlns="http://www.w3.org/2000/svg" xmlns:xlink="http://www.w3.org/1999/xlink">
<defs>
<symbol id="icon-arrowdown" viewBox="0 0 56 32">
<path fill="none" stroke="#78808a" style="stroke: var(--color1, #78808a)" stroke-linejoin="round" stroke-linecap="round" stroke-miterlimit="4" stroke-width="6" d="M50.667 4l-23.333 23.333-23.333-23.333"></path>
</symbol>
<symbol id="icon-calendar" viewBox="0 0 32 32">
<path fill="#78808a" style="fill: var(--color1, #78808a)" d="M32 14.875c-0.124 0.213-0.214 0.46-0.381 0.632-0.356 0.366-0.811 0.466-1.294 0.287-0.494-0.182-0.765-0.558-0.818-1.082-0.015-0.155-0.007-0.312-0.007-0.468-0.001-2.177 0.001-4.354-0.001-6.531-0.001-1.662-1.050-2.71-2.711-2.712-0.457-0.001-0.914 0-1.416 0 0 0.44 0.016 0.864-0.003 1.286-0.043 0.978-1.090 1.534-1.908 1.018-0.381-0.24-0.572-0.598-0.583-1.045-0.010-0.405-0.002-0.81-0.002-1.237-1.897 0-3.775 0-5.689 0 0 0.322 0 0.641 0 0.961 0 0.937-0.47 1.51-1.242 1.515-0.784 0.005-1.259-0.572-1.259-1.53 0-0.311 0-0.621 0-0.949-1.874 0-3.724 0-5.626 0 0 0.401 0.008 0.813-0.002 1.224-0.012 0.566-0.346 1.022-0.85 1.189-0.805 0.266-1.611-0.298-1.643-1.16-0.016-0.413-0.002-0.827-0.002-1.303-0.738 0.036-1.455-0.007-2.14 0.122-1.118 0.211-1.857 1.184-1.92 2.356-0.004 0.083-0.004 0.167-0.004 0.25 0 6.375 0.001 12.749-0.001 19.124 0 1.083 0.421 1.937 1.417 2.405 0.381 0.179 0.84 0.261 1.265 0.264 3.072 0.021 6.146 0.014 9.218 0.009 0.404-0.001 0.765 0.087 1.054 0.381 0.601 0.611 0.417 1.627-0.359 1.998-0.092 0.044-0.188 0.083-0.282 0.124-3.458 0-6.917 0-10.375 0-0.046-0.019-0.091-0.048-0.139-0.056-1.758-0.283-3.039-1.226-3.806-2.824-0.233-0.486-0.331-1.037-0.492-1.558 0-6.875 0-13.75 0-20.625 0.020-0.057 0.050-0.112 0.059-0.171 0.246-1.527 1.031-2.697 2.334-3.523 0.929-0.589 1.957-0.781 3.041-0.746 0.37 0.012 0.741 0.002 1.129 0.002 0-0.342 0.017-0.643-0.003-0.942-0.052-0.773 0.258-1.303 1.003-1.558 0.167 0 0.333 0 0.5 0 0.745 0.254 1.055 0.784 1.003 1.557-0.021 0.306-0.003 0.616-0.003 0.922 1.896 0 3.751 0 5.625 0 0-0.321 0.017-0.623-0.003-0.922-0.052-0.773 0.258-1.302 1.003-1.557 0.167 0 0.333 0 0.5 0 0.745 0.254 1.055 0.784 1.003 1.557-0.021 0.306-0.003 0.616-0.003 0.922 1.917 0 3.793 0 5.688 0 0-0.321 0.017-0.623-0.003-0.922-0.052-0.773 0.258-1.302 1.003-1.557 0.167 0 0.333 0 0.5 0 0.746 0.254 1.055 0.784 1.003 1.558-0.021 0.306-0.003 0.616-0.003 0.947 0.622 0 1.204-0.027 1.784 0.005 1.973 0.11 3.432 1.052 4.321 2.811 0.252 0.499 0.351 1.076 0.521 1.617 0 2.646 0 5.292 0 7.938z"></path>
<path fill="#78808a" style="fill: var(--color1, #78808a)" d="M23.814 32c-0.723-0.181-1.469-0.298-2.164-0.554-3.225-1.188-5.272-4.782-4.669-8.166 0.534-2.997 2.246-5.069 5.127-6.008 2.95-0.961 5.592-0.242 7.787 1.954 1.193 1.193 1.85 2.671 2.053 4.348 0.010 0.081 0.037 0.16 0.056 0.239 0 0.417 0 0.833 0 1.25-0.021 0.101-0.046 0.201-0.062 0.302-0.467 2.988-2.098 5.061-4.916 6.157-0.621 0.242-1.305 0.323-1.96 0.478-0.418 0-0.834 0-1.251 0zM24.429 29.499c2.785 0.006 5.070-2.273 5.071-5.059 0.001-2.774-2.259-5.047-5.036-5.064-2.783-0.016-5.076 2.256-5.087 5.044-0.011 2.784 2.265 5.073 5.052 5.079z"></path>
<path fill="#78808a" style="fill: var(--color1, #78808a)" d="M9.058 13.131c-0.004 0.687-0.575 1.249-1.262 1.241s-1.246-0.583-1.233-1.27c0.012-0.674 0.571-1.225 1.246-1.226 0.687-0.001 1.253 0.568 1.249 1.254z"></path>
<path fill="#78808a" style="fill: var(--color1, #78808a)" d="M13.254 11.878c0.687 0.004 1.249 0.575 1.241 1.262s-0.582 1.246-1.269 1.234c-0.675-0.012-1.225-0.571-1.226-1.246-0.001-0.688 0.567-1.253 1.254-1.249z"></path>
<path fill="#78808a" style="fill: var(--color1, #78808a)" d="M19.933 13.126c-0.001 0.688-0.569 1.252-1.256 1.247s-1.248-0.577-1.239-1.264c0.009-0.675 0.566-1.228 1.241-1.231 0.688-0.004 1.256 0.561 1.255 1.248z"></path>
<path fill="#78808a" style="fill: var(--color1, #78808a)" d="M24.124 11.878c0.688 0.001 1.252 0.569 1.247 1.256s-0.577 1.248-1.264 1.239c-0.675-0.009-1.227-0.566-1.232-1.241-0.004-0.688 0.561-1.256 1.249-1.255z"></path>
<path fill="#78808a" style="fill: var(--color1, #78808a)" d="M7.805 19.81c-0.688-0.003-1.25-0.574-1.242-1.261s0.582-1.246 1.269-1.235c0.675 0.011 1.226 0.57 1.227 1.245 0.001 0.688-0.566 1.254-1.253 1.251z"></path>
<path fill="#78808a" style="fill: var(--color1, #78808a)" d="M14.495 18.568c-0.002 0.688-0.573 1.25-1.26 1.243s-1.246-0.581-1.235-1.268c0.011-0.675 0.569-1.226 1.244-1.227 0.688-0.002 1.254 0.565 1.251 1.252z"></path>
<path fill="#78808a" style="fill: var(--color1, #78808a)" d="M9.058 23.998c0.001 0.687-0.566 1.253-1.253 1.25s-1.25-0.574-1.242-1.261c0.007-0.675 0.562-1.229 1.237-1.234 0.688-0.006 1.257 0.558 1.258 1.245z"></path>
<path fill="#78808a" style="fill: var(--color1, #78808a)" d="M13.243 25.248c-0.688-0.003-1.25-0.574-1.242-1.261s0.582-1.246 1.269-1.234c0.675 0.011 1.226 0.57 1.227 1.245 0.001 0.687-0.566 1.253-1.253 1.25z"></path>
<path fill="#78808a" style="fill: var(--color1, #78808a)" d="M25.691 23.192c0.247 0 0.445-0.011 0.641 0.002 0.674 0.046 1.183 0.598 1.173 1.262-0.009 0.651-0.516 1.198-1.179 1.222-0.654 0.024-1.311 0.025-1.965-0.001-0.637-0.026-1.141-0.532-1.157-1.173-0.023-0.894-0.023-1.789-0.001-2.683 0.016-0.678 0.575-1.192 1.239-1.193s1.214 0.513 1.244 1.19c0.020 0.444 0.004 0.889 0.004 1.374z"></path>
</symbol>
<symbol id="icon-dashboard" viewBox="0 0 32 32">
<path d="M16.373 4.954c-0.243-0.071-0.502-0.071-0.746 0-0.070 0.020-0.193 0.071-0.455 0.27-0.275 0.209-0.613 0.507-1.138 0.974l-6.986 6.21c-0.856 0.761-1.099 0.991-1.268 1.245-0.162 0.244-0.283 0.514-0.358 0.797-0.078 0.295-0.088 0.629-0.088 1.775v6.668c0 1.161 0.001 1.951 0.052 2.561 0.049 0.594 0.139 0.897 0.249 1.109 0.253 0.487 0.65 0.884 1.137 1.137 0.211 0.11 0.515 0.199 1.109 0.249 0.61 0.051 1.399 0.052 2.561 0.052h0.227v-4c0-2.945 2.388-5.333 5.333-5.333s5.333 2.388 5.333 5.333v4h0.227c1.161 0 1.951-0.001 2.561-0.052 0.594-0.049 0.897-0.139 1.109-0.249 0.487-0.253 0.884-0.65 1.137-1.137 0.11-0.211 0.199-0.515 0.249-1.109 0.051-0.61 0.052-1.399 0.052-2.561v-6.668c0-1.146-0.010-1.48-0.088-1.775-0.075-0.284-0.196-0.553-0.358-0.797-0.169-0.254-0.412-0.483-1.268-1.245l-6.986-6.21c-0.526-0.467-0.863-0.766-1.138-0.974-0.262-0.198-0.385-0.249-0.455-0.27zM14.881 2.394c0.731-0.213 1.506-0.213 2.237 0 0.507 0.148 0.927 0.407 1.319 0.704 0.369 0.28 0.785 0.649 1.264 1.075l7.022 6.242c0.038 0.034 0.075 0.067 0.112 0.099 0.696 0.618 1.221 1.084 1.605 1.662 0.325 0.489 0.567 1.027 0.716 1.595 0.177 0.671 0.176 1.374 0.176 2.304 0 0.049 0 0.099 0 0.15v6.724c0 1.091 0 1.992-0.061 2.725-0.063 0.762-0.199 1.462-0.54 2.117-0.506 0.974-1.3 1.768-2.274 2.274-0.656 0.341-1.355 0.476-2.117 0.54-0.733 0.061-1.634 0.061-2.725 0.061h-0.543c-0.010 0-0.021 0-0.031 0-0.161 0-0.354 0-0.524-0.014-0.197-0.016-0.479-0.058-0.773-0.211-0.365-0.19-0.663-0.488-0.853-0.853-0.153-0.294-0.195-0.576-0.211-0.773-0.014-0.17-0.014-0.363-0.014-0.524l0-4.291c0-1.473-1.194-2.667-2.667-2.667s-2.667 1.194-2.667 2.667v4.291c0 0.161 0 0.354-0.014 0.524-0.016 0.197-0.058 0.479-0.211 0.773-0.19 0.365-0.488 0.663-0.853 0.853-0.294 0.153-0.576 0.195-0.773 0.211-0.17 0.014-0.363 0.014-0.524 0.014-0.011 0-0.021 0-0.031 0h-0.543c-1.091 0-1.992 0-2.725-0.061-0.762-0.063-1.462-0.199-2.117-0.54-0.974-0.506-1.768-1.3-2.274-2.274-0.341-0.655-0.476-1.355-0.54-2.117-0.061-0.733-0.061-1.634-0.061-2.725v-6.724c0-0.051-0-0.101-0-0.15-0.001-0.93-0.001-1.633 0.176-2.304 0.149-0.567 0.391-1.106 0.716-1.595 0.384-0.578 0.91-1.044 1.605-1.662 0.037-0.033 0.074-0.066 0.112-0.099l7.022-6.242c0.479-0.426 0.895-0.795 1.264-1.075 0.392-0.297 0.812-0.556 1.319-0.704z"></path>
</symbol>
<symbol id="icon-longarrback" viewBox="0 0 41 32">
<path fill="#2d405a" style="fill: var(--color1, #2d405a)" d="M4.068 14.844h34.708v4.628h-34.708v-4.628z"></path>
<path fill="#2d405a" style="fill: var(--color1, #2d405a)" d="M18.89 2.979l-11.698 14.037 11.711 11.711-3.272 3.272-14.7-14.7 14.403-17.284 3.555 2.963z"></path>
</symbol>
<symbol id="icon-edit" viewBox="0 0 32 32">
<path d="M27.378 4.522c-0.413-0.414-0.77-0.77-1.086-1.046-0.332-0.29-0.69-0.554-1.124-0.734-0.98-0.406-2.081-0.406-3.061 0-0.435 0.18-0.792 0.444-1.125 0.734-0.315 0.275-0.672 0.632-1.086 1.046l-7.979 7.979c-0.553 0.553-0.972 0.971-1.288 1.468-0.268 0.421-0.475 0.877-0.616 1.355-0.166 0.565-0.206 1.155-0.259 1.935l-0.176 2.591c-0.012 0.183-0.027 0.396-0.023 0.583 0.004 0.212 0.031 0.528 0.191 0.857 0.196 0.403 0.521 0.728 0.924 0.924 0.33 0.16 0.645 0.187 0.858 0.191 0.187 0.004 0.4-0.011 0.583-0.023l2.591-0.176c0.78-0.053 1.37-0.092 1.935-0.259 0.478-0.141 0.934-0.348 1.355-0.616 0.497-0.316 0.915-0.734 1.468-1.288l7.979-7.979c0.413-0.414 0.77-0.77 1.046-1.086 0.29-0.332 0.554-0.69 0.734-1.124 0.406-0.98 0.406-2.081 0-3.061-0.18-0.435-0.444-0.792-0.734-1.124-0.275-0.315-0.632-0.672-1.046-1.086l-0.060-0.060zM24.147 5.206c0.055 0.023 0.162 0.080 0.392 0.28 0.239 0.208 0.531 0.5 0.983 0.952s0.744 0.745 0.952 0.983c0.2 0.23 0.257 0.337 0.28 0.392 0.135 0.327 0.135 0.694 0 1.020-0.023 0.055-0.080 0.162-0.28 0.392-0.144 0.165-0.327 0.355-0.575 0.606l-3.77-3.77c0.251-0.248 0.441-0.432 0.606-0.575 0.23-0.2 0.337-0.257 0.392-0.28 0.327-0.135 0.694-0.135 1.021 0zM20.243 7.946l3.771 3.771-6.352 6.352c-0.68 0.68-0.883 0.873-1.102 1.012-0.21 0.134-0.438 0.237-0.677 0.308-0.249 0.073-0.527 0.1-1.487 0.165l-2.134 0.145 0.145-2.135c0.065-0.959 0.091-1.238 0.165-1.487 0.070-0.239 0.174-0.467 0.308-0.677 0.139-0.219 0.332-0.422 1.012-1.102l6.352-6.352z"></path>
<path d="M14.674 2.667c-1.848 0-3.318 0-4.503 0.098-1.214 0.101-2.248 0.312-3.192 0.802-1.461 0.759-2.652 1.95-3.412 3.412-0.491 0.944-0.702 1.979-0.802 3.192-0.098 1.185-0.098 2.655-0.098 4.503v2.652c0 1.848 0 3.318 0.098 4.503 0.101 1.214 0.312 2.248 0.802 3.192 0.759 1.461 1.95 2.652 3.412 3.411 0.944 0.491 1.979 0.701 3.192 0.802 1.185 0.098 2.655 0.098 4.503 0.098h2.718c1.817 0 3.263 0 4.429-0.095 1.194-0.098 2.212-0.302 3.145-0.777 1.505-0.767 2.729-1.991 3.496-3.496 0.475-0.932 0.679-1.951 0.777-3.145 0.095-1.166 0.095-2.611 0.095-4.429v-0.059c0-0.736-0.597-1.333-1.333-1.333s-1.333 0.597-1.333 1.333c0 1.889-0.001 3.225-0.086 4.27-0.084 1.029-0.243 1.657-0.495 2.151-0.511 1.003-1.327 1.819-2.331 2.331-0.494 0.252-1.122 0.411-2.151 0.495-1.045 0.085-2.381 0.086-4.27 0.086h-2.6c-1.921 0-3.28-0.001-4.341-0.089-1.046-0.087-1.683-0.251-2.184-0.511-0.974-0.506-1.768-1.3-2.274-2.274-0.26-0.5-0.424-1.138-0.511-2.184-0.088-1.062-0.089-2.421-0.089-4.341v-2.533c0-1.921 0.001-3.28 0.089-4.341 0.087-1.046 0.251-1.683 0.511-2.184 0.506-0.974 1.3-1.768 2.274-2.274 0.5-0.26 1.138-0.424 2.184-0.511 1.062-0.088 2.421-0.089 4.341-0.089h1.267c0.736 0 1.333-0.597 1.333-1.333s-0.597-1.333-1.333-1.333h-1.326z"></path>
</symbol>
<symbol id="icon-help" viewBox="0 0 32 32">
<path d="M14.392 14.536c0.002-0.513 0.176-0.984 0.466-1.362l-0.004 0.005c0.409-0.523 0.857-0.983 1.35-1.39l0.015-0.012c0.457-0.395 0.867-0.819 1.235-1.279l0.015-0.019c0.218-0.303 0.349-0.681 0.349-1.090 0-0.016-0-0.032-0.001-0.048l0 0.002c0-0.012 0-0.027 0-0.042 0-1.022-0.828-1.85-1.85-1.85-0.009 0-0.018 0-0.027 0l0.001-0c-0.006-0-0.012-0-0.019-0-0.511 0-0.976 0.195-1.324 0.515l0.001-0.001c-0.416 0.401-0.728 0.905-0.896 1.472l-0.006 0.024-2.035-0.888c0.272-1.021 0.847-1.882 1.621-2.505l0.009-0.007c0.723-0.548 1.638-0.878 2.629-0.878 0.040 0 0.080 0.001 0.119 0.002l-0.006-0c0.015-0 0.032-0 0.049-0 0.771 0 1.499 0.186 2.141 0.515l-0.026-0.012c0.647 0.33 1.175 0.811 1.552 1.398l0.009 0.016c0.363 0.568 0.579 1.261 0.579 2.005 0 0.018-0 0.037-0 0.055l0-0.003c0 0.013 0 0.028 0 0.044 0 0.671-0.189 1.298-0.518 1.83l0.009-0.015c-0.445 0.674-0.957 1.254-1.539 1.755l-0.011 0.009c-0.463 0.395-0.883 0.803-1.274 1.238l-0.011 0.012c-0.221 0.252-0.356 0.583-0.358 0.945v0.001c0.007 0.227 0.041 0.444 0.099 0.65l-0.005-0.019h-2.081c-0.155-0.313-0.25-0.681-0.258-1.071l-0-0.003zM15.78 21.126c-0.013 0-0.029 0.001-0.044 0.001-0.484 0-0.922-0.197-1.239-0.514l-0-0c-0.322-0.315-0.522-0.753-0.522-1.239 0-0.016 0-0.033 0.001-0.049l-0 0.002c-0-0.012-0.001-0.027-0.001-0.041 0-0.491 0.199-0.935 0.522-1.256l0-0c0.316-0.325 0.757-0.526 1.245-0.526 0.014 0 0.027 0 0.041 0l-0.002-0c0.011-0 0.024-0 0.038-0 0.977 0 1.769 0.792 1.769 1.769 0 0.019-0 0.039-0.001 0.058l0-0.003c0 0.014 0.001 0.030 0.001 0.046 0 0.485-0.199 0.924-0.52 1.239l-0 0c-0.318 0.318-0.757 0.514-1.242 0.514-0.015 0-0.031-0-0.046-0.001l0.002 0z"></path>
<path d="M1.394 31.946c-0.215-0-0.419-0.049-0.6-0.136l0.008 0.004c-0.477-0.224-0.802-0.701-0.802-1.253 0-0.003 0-0.005 0-0.008v0-27.118c0.002-1.865 1.513-3.376 3.378-3.378h25.243c1.865 0.002 3.376 1.513 3.378 3.378v19.31c-0.003 1.865-1.514 3.375-3.378 3.377h-18.89c-0.591 0-1.132 0.212-1.552 0.565l0.004-0.003-5.902 4.937c-0.238 0.201-0.549 0.324-0.888 0.325h-0zM3.378 1.948c-0.821 0.001-1.486 0.666-1.487 1.487v26.045l5.079-4.248c0.742-0.623 1.708-1.002 2.762-1.003h18.89c0.821-0.001 1.486-0.665 1.487-1.486v-19.309c-0.001-0.821-0.666-1.486-1.487-1.487h-0z"></path>
</symbol>
<symbol id="icon-uparr" viewBox="0 0 32 32">
<path d="M14.821 11.293c0.651-0.651 1.706-0.651 2.357 0l7.764 7.764c0.521 0.521 0.521 1.365 0 1.886s-1.365 0.521-1.886 0l-7.057-7.057-7.057 7.057c-0.521 0.521-1.365 0.521-1.886 0s-0.521-1.365 0-1.886l7.764-7.764z"></path>
</symbol>
<symbol id="icon-downarr" viewBox="0 0 32 32">
<path d="M7.057 11.057c0.521-0.521 1.365-0.521 1.886 0l7.057 7.057 7.057-7.057c0.521-0.521 1.365-0.521 1.886 0s0.521 1.365 0 1.886l-7.764 7.764c-0.651 0.651-1.706 0.651-2.357 0l-7.764-7.764c-0.521-0.521-0.521-1.365 0-1.886z"></path>
</symbol>
<symbol id="icon-leftarr" viewBox="0 0 32 32">
<path d="M20.943 7.057c0.521 0.521 0.521 1.365 0 1.886l-7.057 7.057 7.057 7.057c0.521 0.521 0.521 1.365 0 1.886s-1.365 0.521-1.886 0l-7.764-7.764c-0.651-0.651-0.651-1.706 0-2.357l7.764-7.764c0.521-0.521 1.365-0.521 1.886 0z"></path>
</symbol>
<symbol id="icon-logout" viewBox="0 0 32 32">
<path  d="M2.817 1c-0.017 0-0.033 0-0.050 0.001-0.77 0.038-1.494 0.38-2.012 0.951-0.513 0.564-0.784 1.307-0.756 2.068v23.959c-0.028 0.761 0.243 1.503 0.756 2.068 0.518 0.57 1.241 0.912 2.011 0.951 0.017 0.001 0.034 0.001 0.050 0.001h16.364c0.017 0 0.033-0 0.050-0.001 0.77-0.038 1.493-0.38 2.012-0.951 0.513-0.564 0.784-1.307 0.757-2.068v-5.98c0-0.552-0.448-1-1-1s-1 0.448-1 1v6c0 0.006 0 0.012 0 0.018 0 0.004 0 0.008 0 0.012l0.001 0.015c0.011 0.242-0.074 0.478-0.237 0.658-0.158 0.174-0.377 0.28-0.612 0.297h-16.305c-0.234-0.017-0.453-0.123-0.611-0.298-0.163-0.179-0.248-0.415-0.237-0.657 0.001-0.015 0.001-0.030 0.001-0.045v-24c0-0.015-0-0.031-0.001-0.046-0.011-0.242 0.074-0.478 0.237-0.657 0.158-0.174 0.377-0.28 0.611-0.297h16.305c0.234 0.017 0.453 0.123 0.612 0.297 0.163 0.179 0.248 0.416 0.237 0.658-0.001 0.015-0.001 0.030-0.001 0.045v6c0 0.552 0.448 1 1 1s1-0.448 1-1v-5.98c0.028-0.762-0.244-1.504-0.757-2.068-0.519-0.57-1.242-0.912-2.012-0.951-0.017-0.001-0.033-0.001-0.050-0.001h-16.364zM25.293 10.298c0.391-0.391 1.024-0.391 1.414 0l5 5c0.096 0.096 0.168 0.206 0.217 0.324s0.076 0.247 0.076 0.383c0 0.256-0.098 0.512-0.293 0.707l-5 5c-0.391 0.391-1.024 0.391-1.414 0s-0.391-1.024 0-1.414l3.293-3.293h-18.586c-0.552 0-1-0.448-1-1s0.448-1 1-1h18.586l-3.293-3.293c-0.391-0.391-0.391-1.024 0-1.414z"></path>
</symbol>
<symbol id="icon-menu" viewBox="0 0 41 32">
<path fill="#2b003f" style="fill: var(--color4, #2b003f)" d="M39.341 4.218h-37.271c-1.143 0-2.071-0.945-2.071-2.109s0.928-2.109 2.071-2.109h37.271c1.143 0 2.071 0.945 2.071 2.109s-0.928 2.109-2.071 2.109zM19.408 27.608h19.933c1.143 0 2.071 0.945 2.071 2.109s-0.928 2.109-2.071 2.109h-19.933c-1.143 0-2.071-0.945-2.071-2.109s0.928-2.109 2.071-2.109zM39.341 13.804h-37.271c-1.143 0-2.071 0.945-2.071 2.109s0.928 2.109 2.071 2.109h37.271c1.143 0 2.071-0.945 2.071-2.109s-0.928-2.109-2.071-2.109z"></path>
</symbol>
<symbol id="icon-money" viewBox="0 0 32 32">
<path fill="#78808a" style="fill: var(--color1, #78808a)" d="M20.332 16.445c-0.199-0.52-0.566-0.97-1.053-1.289s-1.067-0.489-1.663-0.489v-0.667h-1.44v0.667c-0.764 0-1.496 0.281-2.036 0.781s-0.843 1.178-0.843 1.886c0 0.707 0.303 1.386 0.843 1.886s1.272 0.781 2.036 0.781v2.667c-0.626 0-1.16-0.37-1.358-0.889-0.029-0.085-0.077-0.163-0.14-0.231s-0.14-0.123-0.226-0.162-0.18-0.063-0.276-0.068c-0.096-0.005-0.192 0.007-0.283 0.037s-0.174 0.076-0.245 0.136-0.129 0.133-0.169 0.214c-0.040 0.081-0.063 0.169-0.066 0.258s0.013 0.178 0.048 0.261c0.199 0.52 0.566 0.97 1.053 1.289s1.067 0.489 1.663 0.489v0.667h1.44v-0.667c0.764 0 1.496-0.281 2.036-0.781s0.843-1.178 0.843-1.886c0-0.707-0.303-1.386-0.843-1.886s-1.272-0.781-2.036-0.781v-2.667c0.298-0 0.588 0.085 0.831 0.244s0.427 0.384 0.526 0.644c0.064 0.167 0.196 0.303 0.368 0.38 0.085 0.038 0.178 0.060 0.272 0.064s0.189-0.008 0.278-0.037c0.089-0.029 0.171-0.074 0.241-0.133s0.128-0.129 0.168-0.208c0.041-0.079 0.064-0.165 0.069-0.252s-0.008-0.175-0.040-0.257zM16.176 16c-0.382 0-0.748 0.14-1.018 0.391s-0.422 0.589-0.422 0.943c0 0.354 0.152 0.693 0.422 0.943s0.636 0.391 1.018 0.391v-2.667zM17.616 22.667c0.382 0 0.748-0.14 1.018-0.39s0.422-0.589 0.422-0.943-0.152-0.693-0.422-0.943c-0.27-0.25-0.636-0.391-1.018-0.391v2.667z"></path>
<path fill="#78808a" style="fill: var(--color1, #78808a)" d="M9.084 5.747c-0.176 0.079-0.34 0.158-0.492 0.234-0.308 0.152-0.567 0.295-0.77 0.419l2.642 3.6c-6.184 6.025-10.792 17.998 6.457 17.998s12.514-12.194 6.383-17.998l2.659-3.6c-0.301-0.186-0.728-0.415-1.258-0.658l-0.099-0.045c-1.757-0.79-4.579-1.697-7.685-1.697-3.172 0-6.070 0.947-7.837 1.747zM21.595 9.952c-2.963 0.975-6.466 0.975-9.428-0.001l-1.382-1.885c0.413 0.099 0.831 0.185 1.25 0.257 1.667 0.285 3.466 0.351 5.086-0.083 2.268-0.608 4.623-1.039 6.603-1.171l-2.129 2.882zM11.335 11.087c3.466 1.24 7.632 1.24 11.098-0.001 1.447 1.412 2.657 3.018 3.591 4.762 0.973 1.839 1.503 3.677 1.417 5.261-0.083 1.529-0.733 2.835-2.216 3.805-1.546 1.011-4.145 1.751-8.305 1.751-4.165 0-6.776-0.727-8.336-1.727-1.494-0.959-2.15-2.247-2.242-3.755-0.097-1.567 0.421-3.395 1.391-5.247 0.925-1.765 2.216-3.465 3.603-4.849zM10.507 6.611c1.62-0.637 3.933-1.277 6.413-1.277 1.627 0 3.176 0.276 4.501 0.645-1.587 0.237-3.157 0.564-4.701 0.981-1.325 0.355-2.877 0.317-4.424 0.053-0.61-0.105-1.212-0.243-1.788-0.401z"></path>
</symbol>
<symbol id="icon-newproject" viewBox="0 0 28 32">
<path  d="M20.833 18.461c0 0.325-0.146 0.637-0.407 0.867s-0.614 0.359-0.982 0.359h-11.111c-0.368 0-0.722-0.129-0.982-0.359s-0.407-0.542-0.407-0.867 0.146-0.637 0.407-0.867c0.26-0.23 0.614-0.359 0.982-0.359h11.111c0.368 0 0.722 0.129 0.982 0.359s0.407 0.542 0.407 0.867zM15.278 22.142h-6.944c-0.368 0-0.722 0.129-0.982 0.359s-0.407 0.542-0.407 0.867 0.146 0.637 0.407 0.867c0.26 0.23 0.614 0.359 0.982 0.359h6.944c0.368 0 0.722-0.129 0.982-0.359s0.407-0.542 0.407-0.867-0.146-0.637-0.407-0.867c-0.261-0.23-0.614-0.359-0.982-0.359zM27.778 14.149v10.446c-0.002 1.626-0.735 3.185-2.036 4.335s-3.067 1.797-4.908 1.799h-13.889c-1.841-0.002-3.606-0.649-4.908-1.799s-2.034-2.709-2.036-4.335v-17.174c0.002-1.626 0.735-3.185 2.036-4.335s3.067-1.797 4.908-1.799h6.271c1.277-0.003 2.542 0.218 3.722 0.649s2.252 1.066 3.153 1.865l4.839 4.276c0.906 0.795 1.624 1.741 2.113 2.783s0.739 2.16 0.735 3.288zM18.126 5.537c-0.437-0.374-0.928-0.696-1.46-0.957v5.295c0 0.325 0.146 0.637 0.407 0.867s0.614 0.359 0.982 0.359h5.994c-0.296-0.47-0.661-0.903-1.085-1.288l-4.839-4.276zM25 14.149c0-0.202-0.045-0.396-0.065-0.595h-6.879c-1.105 0-2.165-0.388-2.946-1.078s-1.22-1.626-1.22-2.602v-6.076c-0.225-0.018-0.446-0.058-0.674-0.058h-6.271c-1.105 0-2.165 0.388-2.946 1.078s-1.22 1.626-1.22 2.602v17.174c0 0.976 0.439 1.912 1.22 2.602s1.841 1.078 2.946 1.078h13.889c1.105 0 2.165-0.388 2.946-1.078s1.22-1.626 1.22-2.602v-10.446z"></path>
</symbol>
<symbol id="icon-Notification" viewBox="0 0 27 32">
<path fill="none" stroke="#79828d" style="stroke: var(--color2, #79828d)" stroke-linejoin="round" stroke-linecap="round" stroke-miterlimit="4" stroke-width="3.0476" d="M14.113 23.75c7.483 0 10.945-0.96 11.279-4.813 0-3.85-2.414-3.603-2.414-8.327 0-3.69-3.498-7.889-8.866-7.889s-8.866 4.199-8.866 7.889c0 4.724-2.414 4.477-2.414 8.327 0.336 3.868 3.797 4.813 11.279 4.813z"></path>
<path fill="none" stroke="#79828d" style="stroke: var(--color2, #79828d)" stroke-linejoin="round" stroke-linecap="round" stroke-miterlimit="4" stroke-width="3.0476" d="M17.283 27.744c-1.81 2.010-4.634 2.034-6.461 0"></path>
</symbol>
<symbol id="icon-options" viewBox="0 0 32 32">
<path fill="#5b5876" style="fill: var(--color3, #5b5876)" d="M1.333 6.333h3.648c0.286 1.053 0.911 1.983 1.778 2.645s1.928 1.022 3.019 1.022c1.091 0 2.152-0.359 3.019-1.022s1.492-1.592 1.778-2.645h16.092c0.354 0 0.693-0.14 0.943-0.391s0.391-0.589 0.391-0.943c0-0.354-0.14-0.693-0.391-0.943s-0.589-0.391-0.943-0.391h-16.092c-0.286-1.053-0.911-1.983-1.778-2.645s-1.928-1.022-3.019-1.022c-1.091 0-2.152 0.359-3.019 1.022s-1.492 1.592-1.778 2.645h-3.648c-0.354 0-0.693 0.14-0.943 0.391s-0.391 0.589-0.391 0.943c0 0.354 0.14 0.693 0.391 0.943s0.589 0.391 0.943 0.391zM9.777 2.667c0.462 0 0.913 0.137 1.296 0.393s0.683 0.621 0.859 1.047c0.177 0.426 0.223 0.896 0.133 1.348s-0.312 0.868-0.639 1.195c-0.326 0.326-0.742 0.549-1.195 0.639s-0.922 0.044-1.348-0.133c-0.426-0.177-0.791-0.476-1.047-0.859s-0.393-0.835-0.393-1.296c0.001-0.619 0.247-1.212 0.684-1.649s1.030-0.683 1.649-0.684z"></path>
<path fill="#5b5876" style="fill: var(--color3, #5b5876)" d="M30.667 14.667h-3.648c-0.286-1.053-0.91-1.983-1.777-2.646s-1.928-1.022-3.019-1.022c-1.091 0-2.152 0.359-3.019 1.022s-1.491 1.593-1.777 2.646h-16.093c-0.354 0-0.693 0.14-0.943 0.391s-0.391 0.589-0.391 0.943c0 0.354 0.14 0.693 0.391 0.943s0.589 0.391 0.943 0.391h16.093c0.286 1.053 0.91 1.983 1.777 2.646s1.928 1.022 3.019 1.022c1.091 0 2.152-0.359 3.019-1.022s1.491-1.593 1.777-2.646h3.648c0.354 0 0.693-0.14 0.943-0.391s0.391-0.589 0.391-0.943-0.14-0.693-0.391-0.943c-0.25-0.25-0.589-0.391-0.943-0.391zM22.223 18.333c-0.462 0-0.913-0.137-1.296-0.393s-0.683-0.621-0.86-1.047c-0.176-0.426-0.223-0.896-0.133-1.348s0.312-0.868 0.639-1.195c0.326-0.326 0.742-0.549 1.195-0.639s0.922-0.044 1.348 0.133c0.426 0.177 0.791 0.476 1.047 0.859s0.393 0.835 0.393 1.296c-0.001 0.619-0.247 1.212-0.684 1.649s-1.031 0.684-1.649 0.684z"></path>
<path fill="#5b5876" style="fill: var(--color3, #5b5876)" d="M30.667 25.667h-16.092c-0.286-1.053-0.911-1.983-1.778-2.645s-1.928-1.022-3.019-1.022c-1.091 0-2.152 0.359-3.019 1.022s-1.492 1.592-1.778 2.645h-3.648c-0.354 0-0.693 0.14-0.943 0.39s-0.391 0.589-0.391 0.943 0.14 0.693 0.391 0.943c0.25 0.25 0.589 0.39 0.943 0.39h3.648c0.286 1.053 0.911 1.983 1.778 2.645s1.928 1.022 3.019 1.022c1.091 0 2.152-0.359 3.019-1.022s1.492-1.592 1.778-2.645h16.092c0.354 0 0.693-0.14 0.943-0.39s0.391-0.589 0.391-0.943-0.14-0.693-0.391-0.943c-0.25-0.25-0.589-0.39-0.943-0.39zM9.777 29.333c-0.462 0-0.913-0.137-1.296-0.393s-0.683-0.621-0.859-1.047-0.223-0.896-0.133-1.348c0.090-0.453 0.312-0.868 0.639-1.195s0.742-0.548 1.195-0.639 0.922-0.044 1.348 0.133c0.426 0.177 0.791 0.476 1.047 0.859s0.393 0.835 0.393 1.296c-0.001 0.619-0.247 1.211-0.685 1.649s-1.030 0.684-1.649 0.684z"></path>
</symbol>
<symbol id="icon-rightarr" viewBox="0 0 32 32">
<path d="M11.057 7.057c0.521-0.521 1.365-0.521 1.886 0l7.764 7.764c0.651 0.651 0.651 1.706 0 2.357l-7.764 7.764c-0.521 0.521-1.365 0.521-1.886 0s-0.521-1.365 0-1.886l7.057-7.057-7.057-7.057c-0.521-0.521-0.521-1.365 0-1.886z"></path>
</symbol>
<symbol id="icon-settings" viewBox="0 0 32 32">
<path d="M16 21.333c2.946 0 5.333-2.388 5.333-5.333s-2.388-5.333-5.333-5.333c-2.946 0-5.333 2.388-5.333 5.333v0c0 2.946 2.388 5.333 5.333 5.333v0zM16 13.333c1.473 0 2.667 1.194 2.667 2.667s-1.194 2.667-2.667 2.667c-1.473 0-2.667-1.194-2.667-2.667v0c0-1.473 1.194-2.667 2.667-2.667v0zM4.667 17.169l-1.333 0.772c-0.803 0.47-1.334 1.328-1.334 2.31 0 0.491 0.133 0.95 0.364 1.345l-0.007-0.013 1.985 3.437c0.469 0.804 1.328 1.336 2.311 1.336 0.491 0 0.952-0.133 1.347-0.365l-0.013 0.007 1.347-0.779c0.19-0.109 0.417-0.173 0.659-0.173 0.253 0 0.489 0.070 0.691 0.191l-0.006-0.003c0.397 0.233 0.659 0.657 0.66 1.143v1.621c0 1.473 1.194 2.667 2.667 2.667v0h4c1.473 0 2.667-1.194 2.667-2.667v0-1.624c0.012-0.734 0.609-1.325 1.345-1.325 0.24 0 0.466 0.063 0.662 0.174l-0.007-0.003 1.345 0.776c0.382 0.225 0.842 0.357 1.333 0.357 0.982 0 1.84-0.531 2.303-1.321l0.007-0.013 1.984-3.437c0.224-0.382 0.357-0.842 0.357-1.333 0-0.982-0.531-1.84-1.322-2.303l-0.013-0.007-1.333-0.772c-0.402-0.237-0.667-0.668-0.667-1.16 0-0.009 0-0.019 0-0.028l-0 0.001c0.001-0.49 0.266-0.918 0.66-1.149l0.006-0.003 1.333-0.772c0.803-0.47 1.334-1.328 1.334-2.31 0-0.491-0.133-0.95-0.364-1.345l0.007 0.013-1.987-3.437c-0.469-0.804-1.328-1.335-2.311-1.335-0.49 0-0.95 0.132-1.345 0.363l0.013-0.007-1.347 0.777c-0.189 0.108-0.415 0.171-0.656 0.171-0.736 0-1.334-0.592-1.344-1.326v-1.622c0-1.473-1.194-2.667-2.667-2.667v0h-4c-1.473 0-2.667 1.194-2.667 2.667v0 1.725c-0 0.42-0.227 0.786-0.565 0.984l-0.005 0.003-0.205 0.119c-0.164 0.095-0.36 0.151-0.569 0.151s-0.406-0.056-0.575-0.153l0.006 0.003-1.432-0.831c-0.383-0.225-0.843-0.358-1.334-0.358-0.982 0-1.84 0.531-2.303 1.321l-0.007 0.013-1.984 3.441c-0.224 0.382-0.357 0.842-0.357 1.333 0 0.981 0.53 1.839 1.319 2.302l0.013 0.007 1.333 0.771c0.402 0.238 0.667 0.67 0.667 1.163 0 0.009-0 0.017-0 0.026l0-0.001c0 0.001 0 0.001 0 0.002 0 0.49-0.265 0.917-0.66 1.147l-0.006 0.003zM6 12.52l-1.333-0.771 1.987-3.437 1.432 0.827c0.545 0.319 1.201 0.507 1.9 0.507s1.355-0.188 1.918-0.517l-0.018 0.010 0.205-0.117c1.147-0.671 1.905-1.894 1.909-3.295v-1.726h4v1.621c0.009 2.208 1.801 3.995 4.011 3.995 0.732 0 1.418-0.196 2.009-0.538l-0.019 0.010 1.343-0.776 1.991 3.437-1.333 0.771c-1.202 0.713-1.995 2.004-1.995 3.479s0.793 2.766 1.976 3.469l0.019 0.010 1.333 0.772-1.984 3.437-1.349-0.776c-0.571-0.332-1.258-0.528-1.989-0.528-2.209 0-4.002 1.787-4.011 3.994v1.622h-4v-1.621c-0.006-2.209-1.798-3.997-4.008-3.997-0.733 0-1.42 0.197-2.011 0.54l0.019-0.010-1.343 0.776-1.991-3.437 1.333-0.772c1.202-0.713 1.995-2.004 1.995-3.479s-0.793-2.766-1.976-3.469l-0.019-0.010z"></path>
</symbol>
<symbol id="icon-task" viewBox="0 0 38 32">
<path d="M6.35 31.418c-0.626 0.001-1.246-0.107-1.824-0.318s-1.103-0.522-1.544-0.914l-2.451-1.926c-0.314-0.248-0.505-0.596-0.529-0.967s0.12-0.736 0.4-1.014c0.28-0.278 0.674-0.446 1.095-0.467s0.834 0.106 1.148 0.353l2.516 1.982c0.144 0.143 0.32 0.258 0.516 0.339s0.409 0.125 0.626 0.13c0.216 0.005 0.432-0.029 0.633-0.1s0.384-0.178 0.536-0.313l5.714-4.81c0.149-0.134 0.328-0.24 0.524-0.312s0.408-0.108 0.621-0.107 0.423 0.041 0.619 0.116c0.195 0.075 0.372 0.184 0.518 0.32s0.261 0.297 0.336 0.473c0.075 0.176 0.109 0.363 0.1 0.551s-0.060 0.372-0.151 0.542c-0.091 0.17-0.22 0.322-0.379 0.447l-5.691 4.786c-0.438 0.385-0.959 0.69-1.53 0.897s-1.185 0.313-1.803 0.311zM36.509 30.016h-15.873c-0.421 0-0.825-0.148-1.122-0.41s-0.465-0.62-0.465-0.991 0.167-0.729 0.465-0.991c0.298-0.263 0.701-0.411 1.122-0.411h15.873c0.421 0 0.825 0.148 1.122 0.411s0.465 0.62 0.465 0.991-0.167 0.728-0.465 0.991c-0.298 0.263-0.701 0.41-1.122 0.41zM6.35 20.202c-0.626 0.002-1.246-0.107-1.824-0.318s-1.103-0.522-1.544-0.914l-2.516-2.222c-0.289-0.264-0.449-0.619-0.446-0.986s0.171-0.719 0.465-0.979 0.692-0.407 1.109-0.411c0.416-0.003 0.817 0.138 1.117 0.393l2.517 2.222c0.302 0.255 0.704 0.398 1.122 0.398s0.82-0.142 1.122-0.398l5.714-4.81c0.305-0.257 0.713-0.396 1.134-0.388s0.821 0.165 1.112 0.434c0.291 0.269 0.449 0.629 0.439 1.001s-0.187 0.725-0.491 0.982l-5.697 4.786c-0.438 0.385-0.959 0.69-1.53 0.897s-1.185 0.313-1.803 0.311zM36.509 18.8h-15.873c-0.421 0-0.825-0.148-1.122-0.411s-0.465-0.619-0.465-0.991c0-0.372 0.167-0.728 0.465-0.991s0.701-0.411 1.122-0.411h15.873c0.421 0 0.825 0.148 1.122 0.411s0.465 0.619 0.465 0.991c0 0.372-0.167 0.729-0.465 0.991s-0.701 0.411-1.122 0.411zM6.35 8.986c-0.626 0.001-1.246-0.107-1.824-0.318s-1.103-0.522-1.544-0.914l-2.451-1.926c-0.314-0.248-0.505-0.595-0.529-0.967s0.12-0.736 0.4-1.014c0.28-0.278 0.674-0.446 1.095-0.467s0.834 0.106 1.148 0.353l2.516 1.982c0.144 0.143 0.32 0.258 0.516 0.339s0.409 0.125 0.626 0.13c0.216 0.005 0.432-0.029 0.633-0.1s0.384-0.178 0.536-0.313l5.721-4.81c0.308-0.242 0.71-0.369 1.121-0.354s0.8 0.171 1.084 0.434c0.284 0.264 0.441 0.614 0.438 0.978s-0.167 0.712-0.455 0.971l-5.697 4.786c-0.438 0.385-0.959 0.69-1.53 0.897s-1.185 0.313-1.803 0.311zM36.509 7.584h-15.873c-0.421 0-0.825-0.148-1.122-0.411s-0.465-0.62-0.465-0.991 0.167-0.728 0.465-0.991c0.298-0.263 0.701-0.411 1.122-0.411h15.873c0.421 0 0.825 0.148 1.122 0.411s0.465 0.62 0.465 0.991-0.167 0.728-0.465 0.991c-0.298 0.263-0.701 0.411-1.122 0.411z"></path>
</symbol>
<symbol id="icon-facebook" viewBox="0 0 19 32">
<path fill="none" stroke="#59be29" style="stroke: var(--color6, #59be29)" stroke-linejoin="round" stroke-linecap="round" stroke-miterlimit="4" stroke-width="2.9091" d="M17.455 1.455h-4.364c-1.929 0-3.779 0.766-5.143 2.13s-2.13 3.214-2.13 5.143v4.364h-4.364v5.818h4.364v11.636h5.818v-11.636h4.364l1.455-5.818h-5.818v-4.364c0-0.386 0.153-0.756 0.426-1.029s0.643-0.426 1.029-0.426h4.364v-5.818z"></path>
</symbol>
</defs>
</svg>
